<svg width="70" height="70" viewBox="0 0 70 70" fill="none" xmlns="http://www.w3.org/2000/svg">
<path d="M55.5071 65.2353H14.4915V57.0322H55.5071V65.2353ZM54.0989 50.5887H15.8997C16.4352 51.9471 16.7424 53.3847 16.8089 54.8434H53.1897C53.2562 53.3847 53.5634 51.9471 54.0989 50.5887ZM34.9993 17.6313C33.7027 17.6313 32.4591 18.1463 31.5422 19.0632C30.6253 19.9801 30.1103 21.2237 30.1103 22.5203C30.1103 29.3781 34.9993 36.102 34.9993 36.102C34.9993 36.102 39.8884 29.3781 39.8884 22.5203C39.8884 21.2237 39.3733 19.9801 38.4564 19.0632C37.5395 18.1463 36.296 17.6313 34.9993 17.6313ZM36.0931 15.5285V12.8844H38.6032V10.6969H36.0931V7.49902H33.9056V10.6969H31.3954V12.8844H33.9056V15.534C34.6301 15.4191 35.368 15.4173 36.0931 15.5285ZM47.2548 22.5504C45.4653 22.5483 43.6933 22.9019 42.0417 23.5908C41.6001 30.666 36.9735 37.1055 36.7671 37.3898L36.0931 38.3141V48.3984H55.2337C57.4991 44.8232 60.8091 42.6002 60.8091 36.0937C60.8069 32.5005 59.3779 29.0551 56.8361 26.5152C54.2944 23.9753 50.8481 22.5487 47.2548 22.549V22.5504ZM27.9556 23.5908C25.8959 22.7339 23.6567 22.3985 21.4364 22.6143C19.2161 22.8301 17.0833 23.5905 15.2273 24.828C13.3712 26.0655 11.8492 27.7419 10.7963 29.7085C9.74329 31.6751 9.19187 33.8712 9.19092 36.102C9.19092 42.6029 12.5009 44.8273 14.7663 48.4066H33.9056V38.3141L33.2302 37.3857C33.0237 37.1055 28.3985 30.666 27.9556 23.5908Z" fill="white"/>
</svg>
