<svg width="70" height="70" viewBox="0 0 70 70" fill="none" xmlns="http://www.w3.org/2000/svg">
<path fill-rule="evenodd" clip-rule="evenodd" d="M17.5 17.5003C17.5003 14.1326 18.4724 10.8364 20.2995 8.00742C22.1267 5.17841 24.7314 2.93671 27.801 1.5513C30.8706 0.165888 34.2747 -0.304377 37.605 0.196929C40.9352 0.698236 44.0501 2.14982 46.5758 4.3775C49.1015 6.60519 50.9308 9.51434 51.8441 12.7559C52.7575 15.9974 52.7161 19.4337 51.725 22.6523C50.7338 25.8709 48.835 28.7351 46.2564 30.9014C43.6778 33.0676 40.5288 34.4437 37.1875 34.8647V59.0628C37.1875 59.643 36.957 60.1994 36.5468 60.6096C36.1366 61.0199 35.5802 61.2503 35 61.2503C34.4198 61.2503 33.8634 61.0199 33.4532 60.6096C33.043 60.1994 32.8125 59.643 32.8125 59.0628V34.8691C28.5817 34.3361 24.6911 32.2766 21.8716 29.0776C19.052 25.8786 17.4975 21.7646 17.5 17.5003ZM28.4069 55.0116C28.5017 55.5836 28.3656 56.1699 28.0285 56.6416C27.6913 57.1133 27.1807 57.4318 26.6087 57.5272C23.4937 58.0435 21.0087 58.8178 19.3681 59.6841C18.7654 59.9738 18.2177 60.3661 17.7494 60.8435C17.6435 60.9588 17.5591 61.0922 17.5 61.2372V61.2503L17.5087 61.2853C17.526 61.3362 17.5495 61.3847 17.5788 61.4297C17.7514 61.6829 17.9659 61.9048 18.2131 62.086C18.935 62.6547 20.1162 63.2672 21.77 63.8141C25.0556 64.9078 29.7325 65.6253 35 65.6253C40.2675 65.6253 44.9444 64.9122 48.23 63.8141C49.8838 63.2628 51.065 62.6547 51.7869 62.086C52.0355 61.9051 52.2515 61.6831 52.4256 61.4297C52.4533 61.3845 52.4754 61.336 52.4912 61.2853L52.5 61.2503V61.2328C52.4409 61.0878 52.3565 60.9545 52.2506 60.8391C51.782 60.3632 51.2343 59.9724 50.6319 59.6841C48.9869 58.8178 46.5063 58.0435 43.3913 57.5272C43.1011 57.4879 42.8218 57.3907 42.5699 57.2414C42.3179 57.0922 42.0986 56.8939 41.9247 56.6582C41.7509 56.4226 41.6261 56.1545 41.5578 55.8697C41.4895 55.585 41.4791 55.2894 41.5271 55.0006C41.5752 54.7118 41.6807 54.4355 41.8375 54.1882C41.9943 53.9409 42.1991 53.7276 42.4399 53.5609C42.6807 53.3943 42.9524 53.2776 43.2391 53.2179C43.5257 53.1583 43.8215 53.1567 44.1087 53.2135C47.4775 53.7691 50.4612 54.6485 52.6706 55.8122C54.6875 56.8753 56.875 58.6253 56.875 61.2503C56.875 63.1141 55.7375 64.5403 54.495 65.5247C53.2262 66.5222 51.52 67.3316 49.6125 67.966C45.7713 69.2478 40.6044 70.0003 35 70.0003C29.3956 70.0003 24.2287 69.2478 20.3875 67.966C18.48 67.3316 16.7737 66.5222 15.505 65.5247C14.2625 64.5403 13.125 63.1141 13.125 61.2503C13.125 58.6297 15.3125 56.8753 17.3294 55.8122C19.5387 54.6485 22.5225 53.7691 25.8913 53.2135C26.4633 53.1186 27.0495 53.2547 27.5212 53.5918C27.9929 53.929 28.3115 54.4397 28.4069 55.0116Z" fill="white"/>
</svg>
