<svg width="70" height="70" viewBox="0 0 70 70" fill="none" xmlns="http://www.w3.org/2000/svg">
<path d="M46.6667 32.0833C51.5084 32.0833 55.3875 28.175 55.3875 23.3333C55.3875 18.4917 51.5084 14.5833 46.6667 14.5833C41.825 14.5833 37.9167 18.4917 37.9167 23.3333C37.9167 28.175 41.825 32.0833 46.6667 32.0833ZM23.3334 32.0833C28.175 32.0833 32.0542 28.175 32.0542 23.3333C32.0542 18.4917 28.175 14.5833 23.3334 14.5833C18.4917 14.5833 14.5834 18.4917 14.5834 23.3333C14.5834 28.175 18.4917 32.0833 23.3334 32.0833ZM23.3334 37.9167C16.5375 37.9167 2.91669 41.3292 2.91669 48.125V55.4167H43.75V48.125C43.75 41.3292 30.1292 37.9167 23.3334 37.9167ZM46.6667 37.9167C45.8209 37.9167 44.8583 37.975 43.8375 38.0625C47.2209 40.5125 49.5834 43.8083 49.5834 48.125V55.4167H67.0834V48.125C67.0834 41.3292 53.4625 37.9167 46.6667 37.9167Z" fill="white"/>
</svg>
